<svg id="Layer_1" enable-background="new 0 0 512 512" height="512" viewBox="0 0 512 512" width="512"
    xmlns="http://www.w3.org/2000/svg">
    <path
        d="m492.176 207.966c.972 4.731 5.136 7.989 9.784 7.989.667 0 1.345-.067 2.023-.207 5.41-1.112 8.894-6.399 7.782-11.809-5.736-27.918-15.973-54.476-30.425-78.938-2.808-4.754-8.941-6.332-13.695-3.522-4.755 2.81-6.332 8.942-3.522 13.698 13.324 22.552 22.762 47.042 28.053 72.789z" />
    <path
        d="m445.89 190.356c1.444 4.115 5.307 6.689 9.434 6.689 1.099 0 2.218-.183 3.313-.568 5.211-1.83 7.951-7.539 6.121-12.75-3.82-10.879-8.544-21.522-14.04-31.634-2.639-4.852-8.708-6.648-13.562-4.01-4.851 2.638-6.647 8.71-4.01 13.562 4.988 9.177 9.276 18.837 12.744 28.711z" />
    <path
        d="m37.993 147.181c1.479.773 3.063 1.14 4.624 1.14 3.604 0 7.085-1.955 8.87-5.37 12.133-23.215 27.961-44.15 47.045-62.223 4.01-3.798 4.183-10.127.386-14.138-3.797-4.01-10.125-4.183-14.136-.386-20.694 19.597-37.859 42.301-51.018 67.481-2.559 4.895-.665 10.937 4.229 13.496z" />
    <path
        d="m92.398 116.807c-7.228 8.984-13.778 18.611-19.471 28.614-2.732 4.8-1.055 10.906 3.744 13.638 1.561.889 3.26 1.311 4.937 1.311 3.477 0 6.857-1.817 8.7-5.056 5.166-9.077 11.111-17.814 17.671-25.968 3.462-4.303 2.781-10.599-1.522-14.061s-10.596-2.78-14.059 1.522z" />
    <path
        d="m274.349 491.614c-33.099 1.919-67.012-3.335-98.082-15.186-5.16-1.966-10.938.62-12.906 5.781-1.968 5.16.62 10.94 5.78 12.908 29.163 11.122 60.637 16.883 91.854 16.883 4.844 0 9.688-.139 14.51-.418 5.513-.319 9.724-5.048 9.405-10.562s-5.026-9.72-10.561-9.406z" />
    <path
        d="m260.716 472c1.579 0 3.161-.018 4.74-.052 5.521-.122 9.899-4.697 9.778-10.218-.122-5.522-4.738-9.879-10.217-9.778-16.42.364-32.864-1.348-48.899-5.079-5.377-1.254-10.754 2.094-12.006 7.474s2.094 10.756 7.473 12.007c16.12 3.75 32.624 5.646 49.131 5.646z" />
    <path
        d="m498.811 259.594c-12.367-19.356-33.064-32.546-59.854-38.146-.28-.059-.563-.105-.849-.14l-122.843-14.816c-7.457-8.472-16.78-15.262-27.335-19.695.836-6.198 2.963-11.069 6.318-14.196 6.773-6.313 18.573-5.695 27.435-4.006 9.358 2.717 53.856 12.53 92.996-31.969 11.292-12.839 16.837-29.384 15.612-46.585-1.248-17.545-9.302-33.504-22.677-44.938-21.471-18.355-56.173-33.027-95.21-40.255-38.816-7.186-78.19-6.35-108.027 2.296-26.56 7.696-47.39 23.486-58.651 44.463-10.864 20.238-12.285 44.742-4.11 70.863.086.274.183.544.292.809l45.397 110.637c-2.153 6.981-3.318 14.391-3.318 22.069 0 3.664.277 7.264.785 10.79-7.271 3.048-15.9 3.324-22.094-2.01-2.91-2.55-7.14-7.74-10.729-17.92-12.845-36.428-46.802-65.455-86.665-65.455-30.313 0-57.824 23.393-63.297 53.393-1.317 7.281-1.987 15.251-1.987 23.701 0 13.601 1.71 28.371 5.09 43.892.49 2.24 1.74 4.261 3.53 5.691 1.77 1.41 3.98 2.18 6.23 2.18.71 0 1.43-.07 2.13-.23 5.389-1.17 8.819-6.51 7.649-11.901-3.08-14.131-4.63-27.462-4.63-39.632 0-7.241.56-14.011 1.67-20.132 3.79-21.071 22.508-36.962 43.547-36.962h.07c2.789 0 5.599.28 8.359.82 21.488 4.27 37.427 13.691 48.722 28.788 11.307 15.284 12.282 35.651 27.084 48.766 6.889 6.161 15.659 9.551 24.698 9.451 5.29-.027 10.724-1.075 16.18-3.099 10.539 23.923 33.211 41.33 60.182 44.379l-62.762 81.957c-15.709 16.981-32.388 25.281-50.977 25.372h-.14c-35.826 0-62.939-31.429-80.005-59.504-1.83-3.01-5.03-4.81-8.56-4.81-1.82 0-3.62.51-5.18 1.46-4.719 2.86-6.219 9.021-3.36 13.741 20.884 34.357 54.014 69.042 97.244 69.115h.28c25.689 0 48.855-13.568 65.736-32.182l.55-.66 73.671-96.2c10.78-2.67 20.644-7.677 29.027-14.453 8.127 4.517 13.277 10.033 14.725 15.933 2.208 8.995-4.089 18.998-9.881 25.908-6.936 6.843-37.205 40.909-17.446 96.788 5.7 16.12 17.436 29.03 33.048 36.351 15.005 7.036 34.401 7.99 50.29 2.116 26.494-9.796 56.224-32.941 81.571-63.499 25.204-30.386 43.675-65.173 50.679-95.441 6.236-26.944 2.61-52.831-10.21-72.893zm-338.232-143.503c-6.489-21.002-5.558-39.514 2.769-55.024 8.696-16.199 25.244-28.527 46.596-34.713 26.947-7.808 62.964-8.48 98.821-1.839 35.683 6.607 66.978 19.653 85.857 35.792 9.273 7.928 14.858 18.992 15.723 31.154.841 11.819-2.952 23.168-10.681 31.955-31.542 35.862-65.99 27.885-72.577 25.921-.622-.186-1.004-.261-1.122-.285-19.612-3.85-34.869-.851-45.35 8.916-6.326 5.895-10.39 13.901-12.121 23.636-3.117-.397-6.287-.624-9.51-.624-24.298 0-45.923 11.625-59.637 29.597zm98.406 194.897c-30.325 0-54.997-24.674-54.997-55.003s24.671-55.003 54.997-55.003 54.997 24.674 54.997 55.003-24.672 55.003-54.997 55.003zm230.554 16.99c-6.326 27.336-23.306 59.112-46.588 87.181-23.17 27.934-49.818 48.896-73.114 57.509-11.443 4.231-23.826 3.711-34.864-1.466-10.727-5.03-18.783-13.876-22.684-24.909-15.924-45.034 7.842-71.217 12.768-76.009.463-.45.714-.745.796-.841 12.925-15.245 17.747-30.03 14.332-43.945-2.513-10.24-9.401-19.076-20.135-26.053 8.757-12.272 13.931-27.269 13.931-43.461 0-9.795-1.907-19.147-5.336-27.732l106.634 12.861c21.498 4.577 37.203 14.417 46.682 29.252 9.899 15.492 12.59 35.952 7.578 57.613z" />
    <path
        d="m37.387 339.519c-1.52-3.82-5.17-6.3-9.289-6.3-1.27 0-2.51.24-3.699.72-2.48.99-4.43 2.881-5.48 5.341-1.06 2.45-1.09 5.17-.1 7.65 1.52 3.83 5.17 6.3 9.289 6.3 1.27 0 2.51-.24 3.7-.72 5.12-2.04 7.619-7.87 5.579-12.991z" />
</svg>